<?xml version="1.0" encoding="UTF-8" standalone="no"?>
<!-- @sodoscarfono was here -->
<svg
   xmlns:dc="http://purl.org/dc/elements/1.1/"
   xmlns:cc="http://creativecommons.org/ns#"
   xmlns:rdf="http://www.w3.org/1999/02/22-rdf-syntax-ns#"
   xmlns:svg="http://www.w3.org/2000/svg"
   xmlns="http://www.w3.org/2000/svg"
   width="256"
   height="256"
   id="emacs-logo-concept"
   version="1.1">
  <metadata
     id="metadata7">
    <rdf:RDF>
      <cc:Work
         rdf:about="">
        <dc:format>image/svg+xml</dc:format>
        <dc:type
           rdf:resource="http://purl.org/dc/dcmitype/StillImage" />
        <dc:title />
      </cc:Work>
    </rdf:RDF>
  </metadata>
  <g
     id="grey"
     style="display:inline"
     transform="translate(127.99404,-15.999982)">
    <path
       style="fill:#666666;fill-opacity:1;stroke:none;display:inline"
       id="path3086"
       d="m 768,120 a 782,676 0 1 1 -1564,0 782,676 0 1 1 1564,0 z"
       transform="matrix(0.16368286,0,0,0.18934911,2.29752,121.27809)"/>
  </g>
  <g
     id="white"
     style="display:inline"
     transform="translate(127.99404,-15.999982)">
    <path
       style="fill:#ffffff;fill-opacity:1;stroke:none;display:inline"
       id="path2996"
       d="m -20,-261.71429 a 617.1429,617.1429 0 1 1 -1234.2858,0 617.1429,617.1429 0 1 1 1234.2858,0 z"
       transform="matrix(0.19043209,0,0,0.19043209,121.33841,193.83878)"/>
  </g>
  <g
     id="purple"
     transform="translate(127.99404,-924.3622)"
     style="display:inline">
    <path
       style="fill:#7f5ab6;fill-opacity:1;stroke:none"
       d="m 0.00596,947.3562 c -57.99366,0 -105.01191,47.0123 -105.01191,105.006 0,57.9936 47.01825,105.0059 105.01191,105.0059 57.99365,0 105.00595,-47.0123 105.00595,-105.0059 0,-57.9937 -47.0123,-105.006 -105.00595,-105.006 z m 0,47.8631 c 31.55913,0 57.1369,25.5837 57.1369,57.1429 0,5.278 -0.72037,10.386 -2.05952,15.2381 l -14.66072,0 -13.57143,0 -67.14881,0 c 6.26363,16.1757 21.97017,27.6488 40.35715,27.6488 12.80739,0 24.31523,-5.5658 32.23809,-14.4107 l 17.25,0 c -9.86547,17.1302 -28.35316,28.6666 -49.54166,28.6666 -31.55913,0 -57.14286,-25.5837 -57.14286,-57.1428 0,-31.5592 25.58373,-57.1429 57.14286,-57.1429 z m -0.006,13.875 c -23.89477,0 -43.2619,19.3731 -43.2619,43.2679 l 86.52976,0 c 0,-23.8948 -19.37309,-43.2679 -43.26786,-43.2679 z"
       id="path2998"/>
  </g>
  <g
     id="shadow"
     style="display:inline"
     transform="translate(127.99404,-15.999982)">
    <path
       style="fill:#624195;fill-opacity:0.41176471;stroke:none;display:inline"
       d="m 31.99405,96.64879 c 0.36557,0.24748 0.72983,0.49435 1.08929,0.75 -0.36076,-0.25473 -0.72406,-0.50462 -1.08929,-0.75 z m 1.08929,0.75 c 14.56164,10.35651 24.05952,27.36985 24.05952,46.6012 0,5.27801 -0.72037,10.38605 -2.05952,15.23809 l -14.66072,0 -13.57143,0 -67.14881,0 c 6.26363,16.17575 21.97017,27.64881 40.35715,27.64881 12.80739,0 24.31523,-5.56582 32.23809,-14.41071 l 17.25,0 c -9.86547,17.13024 -28.35316,28.66666 -49.54166,28.66666 -14.8616,0 -28.39581,-5.67704 -38.55953,-14.97619 l 61.25595,60.375 c 40.29914,-8.87964 71.91815,-40.905 80.19048,-81.42857 l -62.7619,-61.85714 -0.006,0 C 37.90293,101.08332 35.54372,99.1361 33.0833,97.39879 z M 0,100.73213 c -23.89477,0 -43.2619,19.37308 -43.2619,43.26786 l 86.52976,0 C 43.26786,120.10521 23.89477,100.73213 0,100.73213 z"
       id="path3864"/>
  </g>
</svg>
